<svg width="155" height="115" viewBox="0 0 155 115" fill="none" xmlns="http://www.w3.org/2000/svg">
<g clip-path="url(#clip0_48_346)">
<path d="M10.5598 97.1385C9.81472 97.1385 9.06809 97.1738 8.33895 97.2449L8.23283 97.2552C3.39643 97.746 -0.14116 100.593 0.00432887 103.878L0.0324545 104.472C0.0510029 104.848 0.0707646 105.251 0.0870319 105.699C0.0958393 105.92 0.358406 106.09 0.685118 106.09H119.649C128.036 106.031 136.393 105.958 144.487 105.871C146.006 105.874 147.523 105.784 149.031 105.601C151.28 105.295 152.841 104.689 153.804 103.749H153.804C155.001 102.583 155.039 101.114 154.966 99.4551C154.819 96.1049 154.673 92.5854 154.527 89.0766C154.398 85.9842 154.27 82.9001 154.141 79.9473C154.062 78.195 153.886 76.6483 152.526 75.4662C151.053 74.1878 148.365 73.5398 144.539 73.5398C144.492 73.5398 144.447 73.5398 144.4 73.54C132.408 73.589 120.525 78.3222 114.832 85.3181C114.177 86.1237 113.566 86.9861 112.975 87.8203C112.111 89.1009 111.158 90.3192 110.123 91.466C109.547 92.0841 108.917 92.6485 108.238 93.152C108.192 93.1887 108.139 93.228 108.083 93.2653C107.955 93.361 107.821 93.4533 107.691 93.5355C106.937 94.037 106.131 94.4573 105.288 94.7896L105.204 94.822C105.14 94.848 105.072 94.874 105.003 94.8978C104.517 95.0766 104.022 95.2286 103.519 95.3531C101.349 95.9022 98.8811 96.0338 96.1848 95.7439C93.6946 95.4674 91.2465 94.8947 88.8927 94.0382C86.3959 93.1324 84.0589 92.0031 81.7988 90.9111C80.8061 90.4312 79.7792 89.9352 78.7538 89.4652C78.561 89.3767 78.3714 89.2902 78.179 89.2038C76.9265 88.6435 75.791 88.1807 74.7076 87.7891C72.0463 86.8198 69.2617 86.2278 66.4353 86.0303C63.4528 85.8429 60.8245 86.1964 58.6252 87.0786C58.0143 87.3232 57.4236 87.6154 56.8586 87.9523C54.2537 89.5051 52.6478 91.7968 51.095 94.013C49.1633 96.7696 47.1658 99.6204 43.2215 101.098C38.6702 102.805 32.0267 102.096 27.3265 100.863C25.8488 100.475 24.3729 100.029 22.9455 99.5974C22.369 99.423 21.7921 99.2499 21.2148 99.078C20.0803 98.7418 19.1519 98.4842 18.2929 98.2668L18.0212 98.1974C17.8701 98.1597 17.7188 98.122 17.5648 98.0862C16.5445 97.8403 15.5945 97.6468 14.6589 97.4946L14.4375 97.4575C13.9938 97.3904 13.5789 97.3346 13.1718 97.2876L13.0092 97.2691C12.1957 97.1814 11.3781 97.1378 10.5598 97.1385Z" fill="#F2F2F2"/>
<path d="M24.436 106.074C24.4358 106.009 24.4616 105.946 24.5077 105.9C24.5537 105.854 24.6163 105.828 24.6817 105.827H130.307C130.372 105.828 130.435 105.854 130.481 105.9C130.527 105.946 130.553 106.008 130.553 106.073C130.553 106.138 130.527 106.2 130.481 106.246C130.435 106.293 130.372 106.319 130.307 106.319H24.6817C24.6166 106.319 24.5542 106.293 24.5082 106.247C24.4622 106.201 24.4362 106.139 24.436 106.074Z" fill="#CACACA"/>
<path d="M107.722 8.88299C107.725 11.1214 106.877 13.2779 105.349 14.9178C105.233 15.0437 105.111 15.1655 104.987 15.2831C100.383 11.7496 95.5541 8.51697 90.531 5.60553C90.5931 5.44868 90.6593 5.29389 90.7318 5.14116C91.5865 3.30636 93.0438 1.81742 94.8625 0.920587C96.6812 0.0237548 98.7525 -0.227245 100.734 0.2091C102.715 0.645445 104.487 1.743 105.758 3.32023C107.029 4.89747 107.721 6.85991 107.722 8.88299Z" fill="#FF6584"/>
<path d="M114.947 26.9628L114.939 27.0556C109.079 26.6532 103.22 26.25 97.3616 25.8462C93.1287 25.5552 88.7488 25.225 85.0085 23.2271C83.5885 22.4697 82.2059 21.4584 80.5955 21.3882C78.598 21.2995 76.8552 22.6926 75.4849 24.1456C67.3854 32.7478 65.0402 45.901 55.9534 53.4569C61.6844 39.3649 68.5269 25.748 76.4164 12.7343C77.8736 10.3299 79.6019 7.7624 82.3073 6.97812C84.8884 6.22893 87.5296 7.32279 89.9059 8.72624C90.4151 9.02757 90.9118 9.34334 91.3921 9.65705C95.0537 12.047 98.6553 14.5285 102.197 17.1015C106.546 20.2572 110.796 23.5443 114.947 26.9628Z" fill="#F2F2F2"/>
<path d="M133.899 45.2075C127.636 36.3922 120.359 28.3385 112.217 21.2106C109.876 19.1591 107.466 17.1833 104.987 15.2831C100.383 11.7496 95.5541 8.51701 90.531 5.60557C88.8834 4.65205 87.2164 3.73637 85.5301 2.85853C84.2199 2.17951 82.8248 1.55828 81.3138 1.65528C80.2566 1.74537 79.2468 2.13254 78.4014 2.77185C76.5447 4.1237 75.3152 6.23505 74.303 8.24735C73.4171 10.012 72.5912 11.8117 71.7488 13.6011C71.3907 14.3627 71.0326 15.1222 70.6621 15.8775C69.3704 18.5235 68.0485 21.1549 66.6962 23.7719C64.9533 27.1443 63.1601 30.4913 61.3165 33.8127C57.4437 40.7949 53.3571 47.6511 49.0565 54.3815C42.735 64.2737 35.972 73.866 28.7674 83.1583C27.8835 84.2955 27.5192 84.5597 26.623 85.6886C26.416 85.9528 26.0475 85.5813 26.2525 85.3192C33.7269 75.8996 40.2346 67.0001 46.7962 56.9242C51.7432 49.327 56.4184 41.5613 60.8218 33.627C62.2355 31.0822 63.6196 28.5216 64.974 25.9452C67.166 21.7741 69.2821 17.5637 71.3224 13.3142C71.8605 12.1956 72.3932 11.0728 72.9203 9.94593C74.5949 6.36921 77.0332 1.05056 81.7422 1.1228C83.127 1.14344 84.4124 1.70275 85.6254 2.32192C86.8611 2.95553 88.074 3.62836 89.2849 4.31151C89.7693 4.58394 90.2516 4.8605 90.7318 5.14119C92.634 6.2433 94.508 7.39151 96.3536 8.58582C99.4336 10.5775 102.432 12.6881 105.349 14.9178C106.734 15.9766 108.098 17.0595 109.442 18.1664C117.871 25.1199 125.45 33.0385 132.022 41.7587C132.815 42.8092 133.591 43.8715 134.351 44.9454C134.545 45.2199 134.092 45.4799 133.899 45.2075Z" fill="#E4E4E4"/>
<path d="M112.683 18.5836C112.957 18.2795 113.229 17.9754 113.504 17.6713C115.676 15.2765 118.006 12.9095 120.989 11.5365C122.41 10.8612 123.963 10.5025 125.538 10.4851C127.165 10.4903 128.757 10.9161 130.261 11.5122C130.972 11.7955 131.668 12.117 132.352 12.4593C133.135 12.8521 133.904 13.2709 134.669 13.6933C136.105 14.4857 137.523 15.313 138.922 16.1749C141.705 17.8902 144.401 19.7364 147.011 21.7136C148.363 22.7389 149.688 23.7979 150.985 24.8904C152.191 25.9053 153.372 26.9475 154.53 28.0169C154.777 28.2445 155.147 27.8761 154.899 27.6484C154.594 27.3651 154.286 27.0836 153.977 26.8056C153.106 26.02 152.22 25.2496 151.321 24.4942C149.681 23.1143 147.998 21.7877 146.273 20.5144C143.591 18.5332 140.816 16.6865 137.949 14.9741C136.516 14.119 135.064 13.2999 133.592 12.5167C133.147 12.2804 132.698 12.0492 132.243 11.8302C131.21 11.3111 130.138 10.8758 129.036 10.5286C127.474 10.0249 125.822 9.86306 124.192 10.0541C122.618 10.2824 121.102 10.8054 119.723 11.5956C116.795 13.2275 114.524 15.7509 112.314 18.2135C112.091 18.4637 112.459 18.8339 112.683 18.5836Z" fill="#E4E4E4"/>
<path d="M52.6876 43.4004L45.6711 40.8415L42.1874 39.571C41.0528 39.1572 39.9209 38.6862 38.748 38.3899C37.7287 38.0996 36.6465 38.1134 35.635 38.4295C34.7329 38.7624 33.9072 39.2728 33.2069 39.9302C32.4915 40.5872 31.8258 41.296 31.2154 42.0509C30.4569 42.9598 29.7096 43.8781 28.959 44.7935C25.8611 48.5711 22.7834 52.3652 19.726 56.1757C16.6686 59.9861 13.6317 63.8127 10.6152 67.6555C7.59134 71.5077 4.58828 75.376 1.60602 79.2604C1.24069 79.7362 0.875666 80.2123 0.51096 80.6887C0.309463 80.9518 -0.144876 80.6924 0.0594646 80.4255C3.06373 76.5021 6.08893 72.5947 9.13507 68.7033C12.1887 64.8027 15.2634 60.9186 18.3593 57.051C21.4551 53.1835 24.5717 49.3328 27.7094 45.4989C28.491 44.5438 29.274 43.5897 30.0582 42.6366C30.7198 41.8327 31.3739 41.0201 32.0995 40.2718C33.4314 38.8983 35.0954 37.6845 37.0873 37.6516C38.2584 37.6322 39.3918 38.0028 40.4799 38.3953C41.6529 38.8184 42.8231 39.2494 43.9946 39.6767L51.0602 42.2534L52.8266 42.8976C53.14 43.012 53.0046 43.516 52.6876 43.4004Z" fill="#E4E4E4"/>
<path d="M121.912 14.55C125.478 12.7228 130.044 13.0807 133.32 15.3635C127.071 16.4386 120.889 17.8772 114.808 19.6717C117.333 18.1961 119.309 15.8841 121.912 14.55Z" fill="#F2F2F2"/>
<path d="M133.355 15.3572L134.042 15.9135C133.81 15.7188 133.568 15.5362 133.32 15.3635C133.332 15.3615 133.344 15.3592 133.355 15.3572Z" fill="#F2F2F2"/>
<path d="M33.471 43.4257C34.1617 42.5874 34.9085 41.7096 35.9416 41.3691L36.9061 41.4071C29.5639 54.3434 19.6477 65.647 7.76611 74.6242C16.3344 64.2247 24.9027 53.8252 33.471 43.4257Z" fill="#F2F2F2"/>
<path d="M105.815 90.5929L99.9742 88.0236V85.8148L102.056 85.8031C102.379 85.8013 102.693 85.6987 102.955 85.5096C103.216 85.3206 103.412 85.0546 103.514 84.7491L104.976 80.3751C105.053 80.1433 105.075 79.8966 105.038 79.6551C105.001 79.4136 104.907 79.1844 104.763 78.9862C104.62 78.7881 104.432 78.6267 104.214 78.5154C103.996 78.4041 103.754 78.346 103.509 78.346H99.9742V76.2906H104.412C104.762 76.2906 105.101 76.1723 105.375 75.955C105.649 75.7377 105.84 75.4343 105.919 75.0944L106.926 70.7266C106.978 70.5007 106.978 70.266 106.927 70.04C106.875 69.8139 106.773 69.6024 106.629 69.421C106.484 69.2397 106.3 69.0932 106.09 68.9926C105.881 68.8919 105.652 68.8397 105.419 68.8397H99.9742V68.3258C99.9742 68.0532 99.8656 67.7918 99.6723 67.5991C99.479 67.4064 99.2168 67.2981 98.9435 67.2981C98.6701 67.2981 98.408 67.4064 98.2147 67.5991C98.0214 67.7918 97.9128 68.0532 97.9128 68.3258V68.8397H61.4087V68.3258C61.4087 68.0532 61.3001 67.7918 61.1068 67.5991C60.9135 67.4064 60.6513 67.2981 60.378 67.2981C60.1046 67.2981 59.8424 67.4064 59.6491 67.5991C59.4559 67.7918 59.3473 68.0532 59.3473 68.3258V68.8397H55.0189C54.7865 68.8397 54.557 68.8919 54.3476 68.9926C54.1382 69.0932 53.9542 69.2397 53.8094 69.421C53.6646 69.6024 53.5627 69.8139 53.5112 70.04C53.4598 70.266 53.4601 70.5007 53.5122 70.7266L54.5192 75.0944C54.5976 75.4343 54.7892 75.7377 55.0629 75.955C55.3366 76.1723 55.6761 76.2906 56.0259 76.2906H59.3473V78.346H56.9287C56.6851 78.346 56.4449 78.4034 56.2277 78.5136C56.0105 78.6238 55.8225 78.7836 55.6791 78.98C55.5356 79.1763 55.4407 79.4038 55.4022 79.6436C55.3636 79.8835 55.3825 80.1291 55.4572 80.3604L56.9497 84.9788C57.0504 85.2906 57.2483 85.5624 57.5144 85.7546C57.7806 85.9467 58.1013 86.0494 58.4299 86.0475L59.3473 86.0424V88.0236L54.6232 90.5929C54.4202 90.5929 54.2191 90.6328 54.0316 90.7103C53.844 90.7877 53.6735 90.9013 53.53 91.0444C53.3864 91.1876 53.2725 91.3575 53.1948 91.5446C53.1171 91.7316 53.0771 91.9321 53.0771 92.1345C53.0771 92.5433 53.24 92.9354 53.53 93.2245C53.8199 93.5136 54.2132 93.6761 54.6232 93.6761H59.3473V104.981C59.3473 105.253 59.4559 105.515 59.6491 105.708C59.8424 105.9 60.1046 106.009 60.378 106.009C60.6513 106.009 60.9135 105.9 61.1068 105.708C61.3001 105.515 61.4087 105.253 61.4087 104.981V93.6761H97.9128V104.981C97.9128 105.253 98.0214 105.515 98.2147 105.708C98.408 105.9 98.6701 106.009 98.9435 106.009C99.2168 106.009 99.479 105.9 99.6723 105.708C99.8656 105.515 99.9742 105.253 99.9742 104.981V93.6761H105.815C106.225 93.6761 106.618 93.5136 106.908 93.2245C107.198 92.9354 107.361 92.5433 107.361 92.1345C107.361 91.9321 107.321 91.7316 107.243 91.5446C107.166 91.3575 107.052 91.1876 106.908 91.0444C106.765 90.9013 106.594 90.7877 106.407 90.7103C106.219 90.6328 106.018 90.5929 105.815 90.5929ZM61.4087 76.2906H97.9128V78.346H61.4087V76.2906ZM61.4087 88.0236V86.0308L97.9128 85.8263V88.0236H61.4087Z" fill="#CCCCCC"/>
<path d="M18.7057 86.2322L20.3584 80.8652C18.3698 78.6829 15.877 77.0176 13.0964 76.0139C15.8131 80.5015 13.1806 86.3556 14.2776 91.4819C14.632 93.0782 15.3422 94.5744 16.3554 95.8598C17.3686 97.1452 18.6589 98.1868 20.1307 98.9074L22.6388 102.006C23.9537 99.7154 24.7549 97.1678 24.9872 94.5388C25.2196 91.9098 24.8775 89.2618 23.9847 86.7772C23.4699 85.3883 22.7819 84.0696 21.9366 82.8522C20.4462 84.5993 18.7057 86.2322 18.7057 86.2322Z" fill="#F2F2F2"/>
<path d="M9.61804 86.918L8.69678 81.3793C5.94079 80.3103 2.96475 79.9283 0.0270996 80.2665C4.46579 83.075 4.72809 89.4853 8.00282 93.5858C9.034 94.8569 10.3388 95.8803 11.8206 96.5802C13.3024 97.2801 14.9232 97.6386 16.5628 97.6291L20.1936 99.2871C20.3459 96.6523 19.9236 94.0158 18.9556 91.5594C17.9877 89.103 16.4971 86.885 14.5867 85.0583C13.5048 84.044 12.2991 83.1697 10.9981 82.4559C10.4455 84.6824 9.61804 86.918 9.61804 86.918Z" fill="#F2F2F2"/>
<path d="M140.116 63.5098L136.501 59.2056C137.482 56.4241 139.13 53.9235 141.3 51.9209C140.547 57.1085 145.255 61.4817 146.243 66.63C146.539 68.238 146.468 69.8919 146.036 71.4689C145.603 73.0459 144.821 74.5058 143.746 75.7402L142.643 79.5673C140.538 77.9666 138.807 75.93 137.568 73.5979C136.329 71.2657 135.611 68.6935 135.465 66.0583C135.398 64.5791 135.518 63.0974 135.822 61.6481C137.876 62.68 140.116 63.5098 140.116 63.5098Z" fill="#F2F2F2"/>
<path d="M148.757 60.6188L147.446 55.1587C149.569 53.1055 152.162 51.5999 155 50.7727C152.006 55.0809 154.263 61.0886 152.845 66.1359C152.391 67.7068 151.587 69.1555 150.495 70.3748C149.403 71.594 148.049 72.5526 146.535 73.1794L143.836 76.1145C142.668 73.7459 142.03 71.1532 141.964 68.5148C141.898 65.8764 142.406 63.255 143.454 60.8315C144.055 59.4776 144.825 58.2047 145.746 57.0427C147.123 58.8799 148.757 60.6188 148.757 60.6188Z" fill="#F2F2F2"/>
<path d="M77.3866 110.634L75.0116 111.776L69.4622 103.186L72.9673 101.5L77.3866 110.634Z" fill="#FFB6B6"/>
<path d="M77.6542 76.0589L75.5435 79.2346C75.5435 79.2346 62.9928 87.5218 63.5167 90.6046C63.7 91.683 64.4963 93.9514 65.5207 96.4794C65.8355 97.2562 67.3146 98.8001 67.6612 99.5989C69.4114 103.632 70.2828 106.859 71.1234 107.29C72.0568 107.773 71.9612 107.39 72.5331 108.27L75.845 107.031C75.845 107.031 76.3608 105.877 76.617 105.305C76.8732 104.733 76.4714 104.448 76.4714 104.448C76.4714 104.448 75.9853 104.707 76.0697 104.164C76.1541 103.621 76.125 103.45 75.9242 103.308C75.7233 103.165 74.946 101.711 74.946 101.711C74.2366 100.673 73.6664 99.5464 73.25 98.3606C73.0652 97.8403 73.0836 96.5935 72.836 96.0903C72.3143 95.0301 72.1297 94.2476 71.2868 93.6963C71.2868 93.6963 81.8985 88.5557 82.8942 86.097C83.8899 83.6384 82.8654 75.5308 82.8654 75.5308L77.6542 76.0589Z" fill="#2F2E41"/>
<path d="M78.6458 111.881L70.6151 115L70.5756 114.899C70.2528 114.072 70.2724 113.151 70.6303 112.339C70.9882 111.527 71.6549 110.89 72.4838 110.568L72.4841 110.568L73.5175 108.889L76.6879 108.936L77.3889 108.663L78.6458 111.881Z" fill="#2F2E41"/>
<path d="M97.3806 98.1273L101.261 97.8345L100.777 108.041L98.1481 108.24L97.3806 98.1273Z" fill="#FFB6B6"/>
<path d="M76.0566 78.8672C75.1643 74.9496 77.6788 86.6309 80.2867 88.8149C81.3122 89.6736 85.6048 88.7847 89.1587 89.0555C91.3363 89.2408 93.4623 89.8166 95.4346 90.7555C94.8677 91.7856 95.4608 93.3229 95.5711 94.705C95.7724 97.2265 95.975 99.5452 95.975 99.5452C95.975 99.5452 95.973 101.193 95.8626 101.413C95.7521 101.632 95.807 101.797 96.137 102.237C96.467 102.677 95.9161 102.676 95.9161 102.676C95.9161 102.676 95.6953 103.115 96.1906 103.5C96.686 103.886 97.8618 105.007 97.8618 105.007L101.016 104.728C101.107 103.684 101.379 103.546 101.976 102.683C102.545 101.867 102.414 96.9674 102.014 92.3687C101.987 92.0571 102.423 91.0764 102.393 90.7689C102.097 87.6832 101.226 85.5443 100.841 84.3898C100.576 83.5932 99.3022 82.9063 97.5806 82.3275C97.3179 82.2392 97.0448 82.1534 96.7632 82.0701C92.0159 80.666 84.8699 79.9763 84.8699 79.9763L80.9625 76.511L76.0566 78.8672Z" fill="#2F2E41"/>
<path d="M97.7947 107.679L98.5087 107.443L100.92 105.39L102.79 106.025L102.79 106.025C103.635 105.746 104.556 105.812 105.351 106.21C106.146 106.608 106.751 107.304 107.031 108.146L107.065 108.249L98.8862 110.957L97.7947 107.679Z" fill="#2F2E41"/>
<path d="M79.6577 56.3096L77.3104 58.0917L74.4796 58.9591C74.4796 58.9591 73.3094 75.3729 72.2549 76.4243C71.2004 77.4757 72.1514 77.504 71.9395 78.8698C71.7277 80.2357 71.2126 83.0355 71.2126 83.0355C78.3304 86.7924 84.4667 86.8931 89.3957 82.497C89.4587 82.2251 89.4267 81.9398 89.3048 81.6885C89.183 81.4372 88.9787 81.235 88.7258 81.1153C87.8085 80.63 89.5715 78.3647 88.8218 77.9859C88.0721 77.6071 89.1266 74.3215 89.1266 74.3215L88.4348 67.4661L88.9813 66.3703L87.6477 59.665L85.3335 58.8223L84.4091 56.6015L79.6577 56.3096Z" fill="#2C2C96"/>
<path d="M82.0607 55.3175C84.6249 55.3175 86.7036 53.2448 86.7036 50.6881C86.7036 48.1313 84.6249 46.0586 82.0607 46.0586C79.4964 46.0586 77.4177 48.1313 77.4177 50.6881C77.4177 53.2448 79.4964 55.3175 82.0607 55.3175Z" fill="#FFB6B6"/>
<path d="M78.1872 85.4826C78.1977 85.1862 78.1429 84.8911 78.0267 84.618C77.9104 84.345 77.7356 84.1007 77.5144 83.9024C77.2932 83.704 77.0311 83.5564 76.7466 83.47C76.462 83.3836 76.1619 83.3604 75.8674 83.4022L72.5593 76.991L70.7163 80.256L74.1402 85.8436C74.2433 86.3323 74.5226 86.7663 74.9252 87.0634C75.3278 87.3604 75.8257 87.4999 76.3245 87.4554C76.8233 87.4109 77.2885 87.1855 77.6318 86.8219C77.9751 86.4583 78.1727 85.9818 78.1872 85.4826H78.1872Z" fill="#FFB6B6"/>
<path d="M72.6163 83.9141L65.521 72.9492L65.5444 72.8987C65.5712 72.8409 67.1779 69.3809 68.7348 66.2118C68.9745 65.7237 69.2131 65.2426 69.4445 64.7818C69.5444 64.583 69.6428 64.3883 69.7397 64.1977C70.3936 62.9124 70.9648 61.85 71.3059 61.3454C72.0602 60.2044 73.1832 59.3549 74.4884 58.9381L74.5212 58.9297L74.5526 58.9427C75.191 59.2113 75.7186 59.6889 76.0483 60.2966C76.378 60.9043 76.4902 61.6059 76.3664 62.2857C75.7509 65.5647 74.3796 68.6562 72.3605 71.3163L71.2103 72.828L75.2076 81.4933L72.6163 83.9141Z" fill="#2C2C96"/>
<path d="M91.0935 88.0024V88.2969C91.0934 88.4694 91.0247 88.6349 90.9024 88.7568C90.78 88.8788 90.6141 88.9474 90.4411 88.9474H68.7439C68.5709 88.9474 68.405 88.8788 68.2827 88.7568C68.1603 88.6349 68.0916 88.4694 68.0916 88.2969V88.0024C68.0916 87.8299 68.1603 87.6644 68.2827 87.5424C68.405 87.4205 68.5709 87.3519 68.7439 87.3519H69.1292C69.1156 87.3044 69.1085 87.2552 69.1082 87.2058V76.164C69.1082 76.0193 69.1659 75.8806 69.2685 75.7783C69.3711 75.676 69.5102 75.6185 69.6553 75.6184H89.5298C89.6748 75.6185 89.8139 75.676 89.9165 75.7783C90.0191 75.8806 90.0768 76.0193 90.0769 76.164V87.2058C90.0769 87.2553 90.0699 87.3045 90.0559 87.3519H90.4411C90.6141 87.3519 90.78 87.4205 90.9024 87.5424C91.0247 87.6644 91.0934 87.8299 91.0935 88.0024Z" fill="#3F3D56"/>
<path d="M80.0198 81.8571C79.7746 81.8571 79.5348 81.7846 79.3309 81.6487C79.127 81.5129 78.968 81.3198 78.8742 81.0939C78.7803 80.8679 78.7558 80.6193 78.8036 80.3795C78.8515 80.1396 78.9696 79.9193 79.143 79.7464C79.3164 79.5735 79.5373 79.4557 79.7779 79.408C80.0184 79.3603 80.2678 79.3848 80.4943 79.4784C80.7209 79.572 80.9146 79.7305 81.0508 79.9338C81.1871 80.1371 81.2598 80.3762 81.2598 80.6207C81.2595 80.9485 81.1287 81.2628 80.8962 81.4946C80.6638 81.7264 80.3486 81.8567 80.0198 81.8571ZM80.0198 79.5974C79.8168 79.5974 79.6184 79.6574 79.4496 79.7699C79.2809 79.8823 79.1493 80.0421 79.0716 80.2291C78.994 80.4161 78.9736 80.6218 79.0132 80.8203C79.0528 81.0188 79.1506 81.2012 79.2941 81.3443C79.4376 81.4874 79.6205 81.5849 79.8196 81.6243C80.0187 81.6638 80.225 81.6436 80.4125 81.5661C80.6001 81.4886 80.7604 81.3575 80.8731 81.1892C80.9859 81.0209 81.0461 80.8231 81.0461 80.6207C81.0458 80.3494 80.9376 80.0893 80.7452 79.8975C80.5528 79.7056 80.2919 79.5977 80.0198 79.5974Z" fill="white"/>
<path d="M79.5924 81.3242C80.2182 81.3242 80.7255 80.8183 80.7255 80.1943C80.7255 79.5703 80.2182 79.0645 79.5924 79.0645C78.9666 79.0645 78.4592 79.5703 78.4592 80.1943C78.4592 80.8183 78.9666 81.3242 79.5924 81.3242Z" fill="white"/>
<path d="M97.0147 41.8839C96.8194 42.1076 96.6755 42.3712 96.5934 42.6563C96.5113 42.9414 96.4929 43.241 96.5394 43.5339C96.586 43.8269 96.6964 44.1061 96.8628 44.3519C97.0293 44.5977 97.2478 44.8041 97.503 44.9566L96.0239 52.0141L99.5176 50.6349L100.387 44.1444C100.615 43.7001 100.672 43.1876 100.547 42.704C100.422 42.2205 100.123 41.7995 99.7076 41.5209C99.292 41.2423 98.7883 41.1253 98.292 41.1922C97.7957 41.2591 97.3412 41.5052 97.0148 41.8839L97.0147 41.8839Z" fill="#FFB6B6"/>
<path d="M100.352 46.6001L98.9392 59.573L98.8892 59.5975C98.8479 59.6177 97.058 60.4931 94.8609 61.5356C94.4902 61.7115 94.5433 62.4733 94.156 62.6554C93.8891 62.7808 93.1845 62.3257 92.9149 62.4514C90.5133 63.5712 88.0849 64.6601 87.1171 64.9552C85.8106 65.3679 84.4017 65.3227 83.1245 64.827L83.0937 64.8129L83.0776 64.7831C82.7513 64.1736 82.643 63.4714 82.7707 62.7923C82.8983 62.1131 83.2542 61.4977 83.7798 61.0473C86.3287 58.8865 89.3464 57.3459 92.5948 56.5472L94.443 56.095L96.8102 46.8537L100.352 46.6001Z" fill="#2C2C96"/>
<path d="M92.4416 41.7487L92.9732 46.5595C93.0102 46.6795 93.0849 46.7846 93.1862 46.8592C93.2875 46.9338 93.4101 46.9741 93.5361 46.9741H95.9867C96.1127 46.9741 96.2353 46.9338 96.3366 46.8592C96.438 46.7846 96.5126 46.6795 96.5496 46.5595L96.99 42.8723C97.1171 42.9344 97.2572 42.9656 97.3987 42.9632C97.5402 42.9609 97.6792 42.925 97.8041 42.8587C97.9291 42.7923 98.0364 42.6974 98.1174 42.5816C98.1984 42.4658 98.2506 42.3325 98.2698 42.1927C98.2891 42.0528 98.2747 41.9105 98.228 41.7772C98.1813 41.644 98.1035 41.5237 98.0011 41.4263C97.8986 41.3289 97.7745 41.2571 97.6388 41.2168C97.5031 41.1766 97.3598 41.169 97.2206 41.1947C97.1657 41.13 97.0972 41.0781 97.0201 41.0425C96.9429 41.0069 96.8588 40.9886 96.7738 40.9888H93.0045C92.9123 40.9888 92.8215 41.0103 92.7392 41.0517C92.6569 41.0932 92.5855 41.1532 92.5308 41.2272C92.476 41.3011 92.4394 41.3868 92.4239 41.4774C92.4084 41.568 92.4145 41.6609 92.4416 41.7487ZM97.0669 42.6229L97.3367 41.7487C97.3679 41.6479 97.371 41.5404 97.3456 41.4379C97.3571 41.4373 97.368 41.4345 97.3796 41.4345C97.549 41.4345 97.7114 41.5016 97.8312 41.621C97.9509 41.7404 98.0182 41.9024 98.0182 42.0712C98.0182 42.2401 97.9509 42.402 97.8312 42.5215C97.7114 42.6409 97.549 42.708 97.3796 42.708C97.2697 42.7073 97.162 42.678 97.0669 42.6229Z" fill="#3F3D56"/>
<path d="M85.8424 46.7113C85.4605 45.6037 83.5598 44.8355 80.4784 44.7286C77.397 44.6218 76.6155 48.2426 76.6155 48.2426C74.5584 49.9064 78.812 54.361 79.0178 54.2005L78.9253 53.3636C78.7721 51.9773 78.121 50.8957 78.949 49.451L79.744 49.4601C80.7709 49.657 81.7977 49.8538 82.8245 50.0507L81.6088 48.9835L81.6431 48.9306C82.1602 49.1992 82.7229 49.3695 83.3025 49.433C83.9558 49.4713 84.6701 49.212 84.9831 48.6388C85.0666 48.4813 85.1177 48.3086 85.1332 48.1311C86.0143 48.4821 86.4172 49.5651 86.4172 49.5651C86.4172 49.5651 86.2242 47.8189 85.8424 46.7113Z" fill="#2F2E41"/>
</g>
<defs>
<clipPath id="clip0_48_346">
<rect width="155" height="115" fill="white"/>
</clipPath>
</defs>
</svg>
